<svg xmlns="http://www.w3.org/2000/svg" viewBox="0 0 512 512">
    <defs>
        <style>
            .film-body{fill:#06B6D4;}
            .film-hole{fill:#0E7490;}
            .play-btn{fill:#22D3EE;}
            .screen{fill:#083344;}
        </style>
    </defs>
    <g id="Layer_2" data-name="Layer 2">
        <g id="Layer_1-2" data-name="Layer 1">
            <rect class="film-body" x="88" y="88" width="336" height="336" rx="32"/>
            <rect class="film-hole" x="104" y="104" width="40" height="28" rx="6"/>
            <rect class="film-hole" x="156" y="104" width="40" height="28" rx="6"/>
            <rect class="film-hole" x="208" y="104" width="40" height="28" rx="6"/>
            <rect class="film-hole" x="264" y="104" width="40" height="28" rx="6"/>
            <rect class="film-hole" x="316" y="104" width="40" height="28" rx="6"/>
            <rect class="film-hole" x="368" y="104" width="40" height="28" rx="6"/>
            <rect class="film-hole" x="104" y="380" width="40" height="28" rx="6"/>
            <rect class="film-hole" x="156" y="380" width="40" height="28" rx="6"/>
            <rect class="film-hole" x="208" y="380" width="40" height="28" rx="6"/>
            <rect class="film-hole" x="264" y="380" width="40" height="28" rx="6"/>
            <rect class="film-hole" x="316" y="380" width="40" height="28" rx="6"/>
            <rect class="film-hole" x="368" y="380" width="40" height="28" rx="6"/>
            <rect class="screen" x="112" y="148" width="288" height="216" rx="12"/>
            <polygon class="play-btn" points="220,196 220,316 320,256"/>
        </g>
    </g>
</svg>